<?xml version="1.0" encoding="utf-8"?>
<!-- Generator: Adobe Illustrator 15.0.2, SVG Export Plug-In  -->
<!DOCTYPE svg PUBLIC "-//W3C//DTD SVG 1.1//EN" "http://www.w3.org/Graphics/SVG/1.1/DTD/svg11.dtd" [
	<!ENTITY ns_flows "http://ns.adobe.com/Flows/1.0/">
]>
<svg version="1.1"
	 xmlns="http://www.w3.org/2000/svg" xmlns:xlink="http://www.w3.org/1999/xlink" xmlns:a="http://ns.adobe.com/AdobeSVGViewerExtensions/3.0/"
	 x="0px" y="0px" width="535px" height="535px" viewBox="0 0 535 535" enable-background="new 0 0 535 535" xml:space="preserve">
<defs>
</defs>
<path fill-rule="evenodd" clip-rule="evenodd" fill="#006138" d="M267.274,524.553c-68.721,0-133.328-26.761-181.92-75.354
	C36.761,400.606,10,335.998,10,267.275c0-68.721,26.761-133.329,75.354-181.921S198.554,10,267.274,10
	c68.725,0,133.334,26.761,181.928,75.354c48.593,48.592,75.354,113.2,75.354,181.921c0,68.724-26.762,133.332-75.354,181.924
	C400.609,497.792,335.999,524.553,267.274,524.553z"/>
<path fill="#FFFFFF" d="M267.274,20c136.575,0,247.282,110.708,247.282,247.275c0,136.571-110.707,247.277-247.282,247.277
	C130.708,514.553,20,403.847,20,267.275C20,130.708,130.708,20,267.274,20 M267.274,0c-36.073,0-71.078,7.069-104.042,21.012
	c-31.829,13.462-60.411,32.731-84.95,57.271c-24.54,24.54-43.808,53.121-57.271,84.95C7.069,196.197,0,231.202,0,267.275
	c0,36.074,7.069,71.08,21.012,104.044c13.463,31.83,32.731,60.411,57.271,84.951c24.54,24.539,53.121,43.808,84.95,57.271
	c32.964,13.942,67.968,21.012,104.042,21.012c36.075,0,71.081-7.069,104.046-21.012c31.831-13.462,60.413-32.73,84.953-57.271
	c24.54-24.539,43.809-53.121,57.271-84.951c13.942-32.964,21.012-67.97,21.012-104.044c0-36.073-7.069-71.078-21.012-104.042
	c-13.463-31.83-32.731-60.411-57.271-84.951s-53.122-43.808-84.953-57.271C338.355,7.069,303.35,0,267.274,0L267.274,0z"/>
<path fill-rule="evenodd" clip-rule="evenodd" fill="#FFFFFF" d="M120.423,136.761l0.57,0.471l-9.235,11.172l-0.569-0.471
	l0.588-0.712c0.515-0.623,0.82-1.215,0.913-1.776c0.08-0.396,0.004-0.815-0.231-1.258c-0.156-0.324-0.77-0.928-1.838-1.812
	L96.557,130.75c-1.09-0.9-1.82-1.406-2.188-1.515c-0.368-0.108-0.801-0.071-1.299,0.112c-0.495,0.186-0.993,0.578-1.49,1.179
	l-0.588,0.713l-0.57-0.472l9.235-11.172l0.569,0.471l-0.585,0.709c-0.513,0.62-0.813,1.208-0.907,1.768
	c-0.078,0.396-0.004,0.818,0.222,1.27c0.157,0.324,0.77,0.927,1.839,1.811l14.064,11.625c1.091,0.902,1.822,1.405,2.194,1.51
	s0.806,0.066,1.301-0.117s0.99-0.574,1.485-1.172L120.423,136.761L120.423,136.761z"/>
<path fill-rule="evenodd" clip-rule="evenodd" fill="#FFFFFF" d="M122.411,97.299l21.377,4.572l-7.455-9.123
	c-1.059-1.296-1.958-2.021-2.699-2.179c-1.006-0.205-2.092,0.188-3.26,1.176l-0.467-0.572l7.085-5.791l0.469,0.572
	c-0.813,0.859-1.298,1.508-1.457,1.948c-0.16,0.441-0.155,0.941,0.013,1.503c0.169,0.561,0.671,1.353,1.503,2.373l14.568,17.825
	l-0.546,0.447l-29.029-5.915l11.069,13.544c1.015,1.242,1.987,1.847,2.917,1.814c0.93-0.034,1.764-0.354,2.504-0.958l0.515-0.421
	l0.467,0.572l-7.659,6.259l-0.467-0.572c1.174-0.977,1.798-1.894,1.873-2.752c0.075-0.857-0.357-1.859-1.294-3.006l-12.276-15.022
	l-1.018-0.209c-0.937-0.22-1.654-0.28-2.153-0.181c-0.5,0.098-1.086,0.405-1.758,0.917l-0.468-0.572L122.411,97.299L122.411,97.299z
	"/>
<path fill-rule="evenodd" clip-rule="evenodd" fill="#FFFFFF" d="M172.516,64.201l4.398,8.093l-0.759,0.389
	c-1.405-1.872-3.118-3.079-5.142-3.622c-2.023-0.542-3.84-0.401-5.447,0.422c-1.243,0.636-2.059,1.469-2.446,2.5
	c-0.387,1.03-0.361,1.975,0.079,2.834c0.278,0.544,0.654,0.962,1.128,1.255c0.646,0.388,1.502,0.659,2.57,0.816
	c0.778,0.105,2.467,0.134,5.066,0.086c3.633-0.074,6.271,0.263,7.913,1.011c1.63,0.752,2.86,1.938,3.689,3.559
	c1.053,2.057,1.154,4.238,0.303,6.543c-0.85,2.305-2.515,4.091-4.991,5.359c-0.778,0.398-1.552,0.696-2.323,0.896
	c-0.771,0.199-1.79,0.351-3.054,0.457c-0.705,0.059-1.246,0.186-1.621,0.378c-0.317,0.162-0.589,0.453-0.816,0.876
	c-0.229,0.422-0.326,0.936-0.291,1.542l-0.658,0.337l-4.766-9.311l0.658-0.336c1.873,2.342,3.925,3.808,6.155,4.401
	c2.231,0.593,4.227,0.437,5.991-0.467c1.362-0.697,2.26-1.621,2.69-2.773c0.431-1.152,0.396-2.218-0.105-3.198
	c-0.297-0.58-0.743-1.063-1.333-1.449c-0.59-0.384-1.329-0.659-2.215-0.824c-0.887-0.166-2.339-0.228-4.355-0.189
	c-2.825,0.058-4.924-0.053-6.297-0.328c-1.373-0.274-2.565-0.756-3.579-1.444c-1.014-0.688-1.815-1.605-2.404-2.756
	c-1.003-1.96-1.136-4-0.397-6.121c0.74-2.119,2.208-3.742,4.404-4.867c0.801-0.409,1.627-0.712,2.479-0.906
	c0.645-0.148,1.476-0.238,2.495-0.269c1.018-0.03,1.692-0.129,2.02-0.298c0.315-0.162,0.515-0.385,0.599-0.668
	c0.084-0.284,0.019-0.833-0.197-1.644L172.516,64.201L172.516,64.201z"/>
<path fill-rule="evenodd" clip-rule="evenodd" fill="#FFFFFF" d="M210.073,67.015l2.066,7.45c0.404,1.459,0.749,2.352,1.036,2.681
	c0.284,0.328,0.691,0.54,1.215,0.637c0.524,0.098,1.404-0.025,2.638-0.368l0.197,0.712l-13.693,3.799l-0.198-0.712
	c1.26-0.349,2.082-0.702,2.466-1.059c0.385-0.357,0.616-0.746,0.695-1.167c0.077-0.422-0.086-1.361-0.491-2.82l-4.786-17.254
	c-0.405-1.458-0.75-2.352-1.036-2.68c-0.287-0.328-0.688-0.541-1.207-0.641c-0.518-0.099-1.4,0.025-2.646,0.371l-0.198-0.711
	l11.68-3.241c3.847-1.067,6.795-1.155,8.846-0.263c2.049,0.892,3.356,2.355,3.921,4.389c0.478,1.722,0.346,3.345-0.393,4.871
	c-0.741,1.525-1.997,2.771-3.768,3.741C215.228,65.417,213.112,66.172,210.073,67.015L210.073,67.015z M206.455,53.979l3.208,11.557
	c0.447-0.096,0.785-0.175,1.012-0.238c1.63-0.454,2.755-1.277,3.374-2.476c0.616-1.198,0.649-2.796,0.094-4.795
	c-0.55-1.986-1.396-3.315-2.532-3.991c-1.138-0.676-2.582-0.772-4.333-0.285L206.455,53.979L206.455,53.979z"/>
<path fill-rule="evenodd" clip-rule="evenodd" fill="#FFFFFF" d="M251.669,46.117l0.652,11.236l0.56-0.033
	c1.778-0.104,3.036-0.729,3.771-1.876c0.737-1.148,1.153-2.803,1.249-4.963l0.739-0.042l0.838,14.469l-0.737,0.043
	c-0.257-1.564-0.68-2.832-1.27-3.807c-0.59-0.973-1.245-1.613-1.968-1.918c-0.725-0.305-1.755-0.419-3.093-0.342l0.453,7.791
	c0.087,1.523,0.207,2.45,0.355,2.782c0.149,0.333,0.409,0.598,0.774,0.794c0.368,0.198,0.947,0.273,1.737,0.226l1.658-0.096
	c2.591-0.15,4.632-0.868,6.125-2.154c1.492-1.285,2.508-3.172,3.05-5.659l0.75-0.044l-0.737,8.862l-23.949,1.389l-0.042-0.737
	l0.922-0.054c0.806-0.046,1.447-0.226,1.923-0.54c0.344-0.21,0.599-0.553,0.763-1.026c0.131-0.334,0.158-1.194,0.077-2.58
	l-1.056-18.215c-0.073-1.249-0.152-2.014-0.237-2.295c-0.164-0.467-0.438-0.819-0.822-1.057c-0.542-0.35-1.264-0.499-2.166-0.446
	l-0.922,0.053l-0.043-0.737l23.209-1.347l0.471,8.115l-0.738,0.042c-0.511-1.957-1.15-3.346-1.918-4.166
	c-0.77-0.82-1.819-1.395-3.155-1.722c-0.782-0.198-2.224-0.237-4.329-0.114L251.669,46.117L251.669,46.117z"/>
<path fill-rule="evenodd" clip-rule="evenodd" fill="#FFFFFF" d="M304.67,57.844l7.482,13.65c1.064,1.939,2.033,3.297,2.91,4.074
	c0.635,0.555,1.35,0.9,2.143,1.037l-0.125,0.728l-14.229-2.438l0.127-0.729c0.912,0.073,1.516,0.032,1.813-0.125
	s0.471-0.384,0.521-0.68c0.098-0.565-0.34-1.736-1.307-3.508l-4.889-8.916l-1.162,0.649l-1.277,7.463
	c-0.244,1.421-0.314,2.32-0.213,2.696s0.355,0.728,0.77,1.054s1.125,0.575,2.133,0.748l-0.125,0.728l-13.783-2.361l0.125-0.729
	l0.91,0.155c0.797,0.137,1.461,0.106,1.996-0.092c0.381-0.127,0.707-0.403,0.975-0.827c0.203-0.296,0.424-1.129,0.658-2.496
	l3.082-17.984c0.238-1.394,0.313-2.278,0.223-2.652c-0.088-0.374-0.338-0.731-0.744-1.07c-0.406-0.338-0.994-0.573-1.764-0.706
	l-0.908-0.155l0.123-0.729l13.613,2.333l-0.123,0.728c-0.93-0.159-1.662-0.146-2.191,0.039c-0.383,0.128-0.713,0.396-0.99,0.803
	c-0.221,0.309-0.449,1.153-0.684,2.534l-1.459,8.505l11.529-6.427c1.605-0.908,2.467-1.708,2.586-2.399
	c0.088-0.515-0.133-0.971-0.658-1.367c-0.27-0.2-0.984-0.419-2.146-0.66l0.127-0.729l10.623,1.82l-0.125,0.728
	c-0.965-0.095-1.742-0.053-2.334,0.131c-0.59,0.184-2.002,0.902-4.234,2.157L304.67,57.844L304.67,57.844z"/>
<path fill-rule="evenodd" clip-rule="evenodd" fill="#FFFFFF" d="M367.428,66.563l-3.793,8.825l-0.732-0.315
	c0.441-2.546,0.176-4.757-0.799-6.634c-0.973-1.875-2.41-3.223-4.313-4.041c-1.592-0.684-3.246-0.855-4.965-0.514
	c-1.719,0.342-3.203,1.118-4.451,2.33c-1.6,1.548-2.896,3.478-3.893,5.789c-0.977,2.276-1.58,4.471-1.807,6.587
	c-0.229,2.117,0.066,3.917,0.883,5.401c0.818,1.484,2.203,2.646,4.16,3.487c1.604,0.688,3.221,0.97,4.857,0.845
	c1.637-0.127,3.561-0.729,5.775-1.807l-0.943,2.196c-2.072,0.878-4.025,1.318-5.863,1.323s-3.791-0.438-5.861-1.329
	c-2.721-1.17-4.904-2.753-6.549-4.748c-1.646-1.996-2.605-4.26-2.877-6.791c-0.271-2.53,0.088-4.944,1.078-7.244
	c1.041-2.424,2.666-4.449,4.873-6.077c2.207-1.627,4.65-2.576,7.328-2.846c2.678-0.269,5.232,0.118,7.664,1.164
	c1.793,0.771,3.52,1.97,5.182,3.599c0.961,0.943,1.598,1.482,1.912,1.617c0.4,0.172,0.811,0.176,1.23,0.011
	c0.422-0.166,0.811-0.546,1.172-1.143L367.428,66.563L367.428,66.563z"/>
<path fill-rule="evenodd" clip-rule="evenodd" fill="#FFFFFF" d="M391.525,82.572l0.424-0.605l12.043,8.471l-0.428,0.605
	l-0.738-0.52c-0.672-0.473-1.291-0.734-1.857-0.785c-0.391-0.041-0.803,0.069-1.236,0.329c-0.311,0.18-0.865,0.838-1.664,1.973
	l-7.803,11.092c-1.529,2.171-2.855,3.598-3.984,4.277c-1.127,0.68-2.479,0.961-4.051,0.845c-1.574-0.117-3.141-0.724-4.699-1.819
	c-1.904-1.34-3.09-2.923-3.561-4.75s-0.279-3.347,0.572-4.558c0.547-0.779,1.23-1.242,2.051-1.388
	c0.818-0.146,1.574,0.023,2.266,0.51c0.682,0.478,1.1,1.097,1.258,1.856c0.156,0.759,0.012,1.456-0.434,2.089
	c-0.221,0.311-0.451,0.556-0.693,0.734c-0.125,0.08-0.5,0.236-1.127,0.469c-0.627,0.232-1.006,0.442-1.141,0.631
	c-0.201,0.29-0.234,0.643-0.092,1.058c0.207,0.61,0.648,1.154,1.33,1.634c0.48,0.336,0.961,0.494,1.447,0.469
	c0.486-0.026,0.975-0.252,1.467-0.679c0.494-0.429,1.57-1.823,3.232-4.185l8.521-12.114c0.813-1.156,1.258-1.925,1.334-2.304
	c0.076-0.379,0.004-0.808-0.213-1.286c-0.219-0.478-0.646-0.941-1.277-1.385L391.525,82.572L391.525,82.572z"/>
<path fill-rule="evenodd" clip-rule="evenodd" fill="#FFFFFF" d="M417.523,130.007l-6.619-7.081l-2.797,0.962
	c-0.922,0.338-1.598,0.709-2.029,1.112c-0.57,0.534-0.777,1.156-0.619,1.866c0.09,0.418,0.59,1.192,1.496,2.321l-0.541,0.505
	l-6.289-6.731l0.539-0.504c0.787,0.624,1.648,0.938,2.582,0.943c0.932,0.004,2.494-0.375,4.686-1.137l22.926-7.875l0.264,0.283
	l-9.801,22.815c-0.932,2.175-1.391,3.678-1.383,4.508c0.006,0.628,0.271,1.274,0.797,1.938l-0.539,0.505l-9.146-9.788l0.539-0.504
	l0.377,0.403c0.734,0.786,1.359,1.235,1.879,1.347c0.363,0.069,0.697-0.037,0.998-0.317c0.18-0.168,0.336-0.372,0.473-0.609
	c0.07-0.104,0.307-0.604,0.707-1.501L417.523,130.007L417.523,130.007z M418.189,128.471l4.102-9.454l-9.795,3.363L418.189,128.471
	L418.189,128.471z"/>
<path fill-rule="evenodd" clip-rule="evenodd" fill="#FFFFFF" d="M203.833,181.648h-23.349c-2.197,0-3.961,1.851-3.961,4.131
	c0,2.281,1.764,4.127,3.961,4.127h23.349c2.201,0,3.957-1.846,3.957-4.127C207.79,183.499,206.034,181.648,203.833,181.648
	L203.833,181.648z"/>
<path fill-rule="evenodd" clip-rule="evenodd" fill="#FFFFFF" d="M191.978,247.609L180.244,260.2l14.42,10.997l10.137-10.763
	c4.458-4.458,6.52-5.589,15.091-5.589l23.498,0.011l0.015-18.131l-23.513-0.01C207.009,236.715,200.229,239.361,191.978,247.609
	L191.978,247.609z"/>
<path fill-rule="evenodd" clip-rule="evenodd" fill="#FFFFFF" d="M342.584,247.609l11.729,12.591L339.9,271.197l-10.145-10.763
	c-4.457-4.458-6.514-5.589-15.08-5.589l-23.5,0.011l-0.012-18.131l23.512-0.01C327.547,236.715,334.33,239.361,342.584,247.609
	L342.584,247.609z"/>
<path fill-rule="evenodd" clip-rule="evenodd" fill="#FFFFFF" d="M267.281,121.776c-10.354,0-18.75,8.392-18.75,18.743v21.48h37.495
	v-21.48C286.025,130.168,277.635,121.776,267.281,121.776L267.281,121.776z"/>
<path fill-rule="evenodd" clip-rule="evenodd" fill="#FFFFFF" d="M268.334,258.215h-2.111v-21.5h-17.692v164.708
	c0,10.352,8.397,42.487,18.75,42.487s18.744-32.136,18.744-42.487V236.715h-17.691V258.215L268.334,258.215z M268.334,431.568
	h-2.111v-21.502h2.111V431.568L268.334,431.568z M268.334,388.229h-2.111v-21.502h2.111V388.229L268.334,388.229z M268.334,344.891
	h-2.111v-21.5h2.111V344.891L268.334,344.891z M268.334,301.553h-2.111v-21.504h2.111V301.553L268.334,301.553z"/>
<path fill-rule="evenodd" clip-rule="evenodd" fill="#FFFFFF" d="M204.148,198.591c12.516-15.122,21.722-21.858,40.431-28.008
	c15.718-5.165,35.905-7.573,41.735-1.743c1.143,1.143-14.381,11.006-16.779,22.776c-1.209,5.935,4.322,8.526,6.402,2.672
	c4.143-11.659,13.223-17.435,17.729-21.301c13.898-11.928,29.045-10.956,29.045-10.956h77.674c3.896,0,7.039,3.154,7.039,7.033
	c0,3.874-3.143,7.025-7.039,7.025h-71.855c-1.529,0-2.768,1.24-2.768,2.766c0,1.529,1.238,2.767,2.768,2.767h45.934
	c2.137,0,3.883,1.742,3.883,3.888c0,2.14-1.746,3.882-3.883,3.882h-58.359c-1.525,0-2.762,1.239-2.762,2.765
	c0,1.529,1.236,2.769,2.762,2.769h33.416c2.148,0,3.883,1.737,3.883,3.881c0,2.146-1.734,3.883-3.883,3.883h-51.617
	c-1.523,0-2.764,1.24-2.764,2.765c0,1.53,1.24,2.77,2.764,2.77h43.742c2.941,0,5.301,2.373,5.301,5.292
	c0,2.915-2.359,5.288-5.301,5.288H193.796c-2.916,0-5.289-2.373-5.289-5.288c0-2.919,2.373-5.292,5.289-5.292
	C193.796,208.225,198.743,205.124,204.148,198.591L204.148,198.591z"/>
<path fill-rule="evenodd" clip-rule="evenodd" fill="#FFFFFF" d="M219.9,175.267H157.59c-2.142,0-3.882-1.852-3.882-4.127
	c0-2.283,1.74-4.131,3.882-4.131h34.072c1.524,0,2.764-1.318,2.764-2.945c0-1.623-1.24-2.94-2.764-2.94h-56.043
	c-3.896,0-7.034-3.35-7.034-7.471c0-4.124,3.137-7.478,7.034-7.478h57.904c0,0,29.452,0.854,44.865,11.649
	c7.174,5.025,5.625,6.423-4.093,10.072C228.103,170.218,225.722,171.622,219.9,175.267L219.9,175.267z"/>
<path fill-rule="evenodd" clip-rule="evenodd" fill="#FFFFFF" d="M378.219,228.487c0,2.729-2.219,4.939-4.947,4.939H167.24
	c-2.728,0-4.939-2.21-4.939-4.939c0-2.731,2.211-4.941,4.939-4.941h206.032C376,223.545,378.219,225.756,378.219,228.487
	L378.219,228.487z"/>
<path fill-rule="evenodd" clip-rule="evenodd" fill="#FFFFFF" d="M79.414,333.092l-6.612,1.897l-0.188-0.657
	c1.412-0.817,2.382-1.555,2.913-2.212c0.53-0.656,0.877-1.447,1.04-2.373c0.084-0.516-0.035-1.342-0.36-2.477l-0.533-1.857
	l-18.851,5.408c-1.244,0.355-2.001,0.646-2.273,0.872c-0.272,0.226-0.467,0.571-0.586,1.037c-0.119,0.464-0.079,1.043,0.119,1.733
	l0.231,0.801l-0.656,0.189l-3.651-12.732l0.655-0.188l0.232,0.808c0.202,0.704,0.491,1.236,0.865,1.594
	c0.255,0.265,0.613,0.427,1.071,0.489c0.325,0.049,1.097-0.101,2.316-0.452l18.851-5.406l-0.533-1.858
	c-0.473-1.646-1.163-2.742-2.071-3.288c-1.27-0.769-2.842-1.033-4.719-0.796l-0.187-0.653l6.611-1.897L79.414,333.092
	L79.414,333.092z M70.858,348.545l-6.568,2.854c-1.256,0.547-2.012,0.967-2.269,1.267c-0.257,0.297-0.396,0.687-0.418,1.169
	c-0.022,0.479,0.203,1.261,0.674,2.344l-0.625,0.271l-5.235-12.041l0.626-0.271c0.476,1.096,0.897,1.793,1.267,2.096
	c0.371,0.305,0.75,0.464,1.137,0.483c0.387,0.018,1.208-0.244,2.464-0.792l15.17-6.593c1.255-0.546,2.011-0.969,2.267-1.268
	c0.258-0.298,0.396-0.688,0.419-1.167c0.021-0.48-0.203-1.263-0.673-2.346l0.625-0.272l4.713,10.842
	c1.227,2.821,1.929,4.973,2.109,6.449c0.18,1.478-0.074,2.857-0.762,4.137c-0.688,1.284-1.736,2.228-3.143,2.842
	c-1.717,0.745-3.403,0.748-5.059,0.006c-1.051-0.476-2.06-1.341-3.027-2.597l-5.464,9.009c-0.71,1.182-1.124,1.984-1.244,2.405
	c-0.154,0.625-0.114,1.256,0.123,1.892l-0.625,0.273l-3.179-7.313l7.366-12.142L70.858,348.545L70.858,348.545z M82.223,343.603
	l-10.061,4.375l0.428,0.986c0.696,1.602,1.361,2.738,1.996,3.408c0.633,0.67,1.424,1.071,2.373,1.199
	c0.949,0.128,2.027-0.069,3.236-0.595c1.75-0.761,2.862-1.741,3.333-2.939c0.472-1.199,0.305-2.728-0.501-4.583L82.223,343.603
	L82.223,343.603z M82.859,381.325l-4.626-7.628l-2.704,0.34c-0.894,0.132-1.572,0.34-2.035,0.621
	c-0.615,0.373-0.919,0.894-0.913,1.562c0.002,0.393,0.303,1.181,0.904,2.365l-0.583,0.353l-4.381-7.223l0.583-0.353
	c0.591,0.706,1.306,1.149,2.144,1.329c0.838,0.177,2.315,0.13,4.434-0.147l22.044-2.768l0.185,0.304l-13.099,18.606
	c-1.251,1.781-1.951,3.045-2.102,3.795c-0.114,0.564,0.002,1.195,0.35,1.889l-0.583,0.355l-6.334-10.444l0.583-0.354l0.263,0.433
	c0.511,0.843,0.99,1.362,1.437,1.56c0.315,0.131,0.636,0.097,0.962-0.102c0.194-0.118,0.375-0.272,0.544-0.461
	c0.084-0.08,0.394-0.487,0.929-1.222L82.859,381.325L82.859,381.325z M83.72,380.113l5.534-7.799l-9.538,1.197L83.72,380.113
	L83.72,380.113z M109.944,388.669l-4.288,19.573l8.405-6.791c1.187-0.96,1.853-1.779,1.994-2.459
	c0.185-0.926-0.178-1.934-1.089-3.021l0.53-0.431l5.287,6.545l-0.53,0.428c-0.786-0.752-1.381-1.203-1.783-1.355
	c-0.404-0.15-0.863-0.151-1.378-0.002c-0.515,0.149-1.24,0.603-2.174,1.356l-16.447,13.29l-0.395-0.487l5.68-26.657l-12.665,10.233
	c-1.109,0.897-1.644,1.767-1.604,2.61c0.04,0.846,0.337,1.61,0.89,2.296l0.384,0.476l-0.531,0.428l-5.715-7.073l0.531-0.43
	c0.889,1.082,1.719,1.665,2.492,1.747c0.772,0.085,1.671-0.286,2.695-1.114l13.973-11.292l0.192-0.897
	c0.2-0.853,0.254-1.507,0.165-1.964c-0.09-0.458-0.368-0.995-0.835-1.614l0.531-0.429L109.944,388.669L109.944,388.669z
	 M134.237,414.243l-5.755,6.22l-0.568-0.557c1.218-1.771,1.768-3.616,1.649-5.534c-0.121-1.919-0.774-3.459-1.961-4.619
	c-0.917-0.896-1.881-1.36-2.89-1.397c-1.01-0.037-1.824,0.263-2.441,0.896c-0.393,0.401-0.646,0.851-0.763,1.345
	c-0.149,0.674-0.136,1.495,0.037,2.466c0.133,0.706,0.597,2.178,1.391,4.416c1.116,3.125,1.587,5.511,1.416,7.156
	c-0.181,1.635-0.854,3.05-2.019,4.244c-1.481,1.519-3.349,2.239-5.606,2.169c-2.257-0.069-4.303-1.001-6.137-2.791
	c-0.575-0.562-1.062-1.151-1.461-1.767c-0.4-0.616-0.829-1.463-1.288-2.539c-0.258-0.6-0.526-1.036-0.805-1.308
	c-0.233-0.229-0.569-0.379-1.005-0.453s-0.918-0.004-1.44,0.209l-0.488-0.478l6.71-6.873l0.488,0.478
	c-1.488,2.317-2.16,4.537-2.018,6.655c0.143,2.12,0.868,3.819,2.177,5.097c1.011,0.988,2.082,1.501,3.213,1.544
	c1.131,0.04,2.05-0.298,2.755-1.021c0.417-0.427,0.708-0.953,0.87-1.578c0.164-0.625,0.189-1.346,0.075-2.161
	c-0.114-0.817-0.479-2.092-1.097-3.828c-0.867-2.431-1.383-4.284-1.547-5.562c-0.165-1.276-0.097-2.458,0.205-3.542
	c0.3-1.085,0.864-2.05,1.693-2.898c1.412-1.446,3.148-2.157,5.21-2.134c2.062,0.025,3.904,0.83,5.529,2.416
	c0.593,0.576,1.094,1.209,1.512,1.897c0.315,0.521,0.632,1.223,0.951,2.109c0.319,0.884,0.6,1.444,0.842,1.681
	c0.233,0.228,0.487,0.335,0.764,0.323c0.276-0.014,0.741-0.238,1.396-0.677L134.237,414.243L134.237,414.243z M135.083,433.721
	l-4.389,5.588c-0.846,1.076-1.31,1.807-1.395,2.191c-0.084,0.385-0.02,0.796,0.195,1.232c0.213,0.438,0.78,1.017,1.699,1.738
	l-0.421,0.535l-10.239-8.037l0.421-0.536c0.939,0.736,1.643,1.152,2.112,1.243s0.878,0.053,1.229-0.116
	c0.35-0.167,0.947-0.789,1.792-1.867l10.214-13.01c0.846-1.077,1.31-1.808,1.394-2.192c0.083-0.384,0.022-0.793-0.187-1.227
	c-0.208-0.431-0.778-1.015-1.707-1.743l0.421-0.536l8.732,6.854c2.875,2.259,4.539,4.389,4.991,6.392
	c0.449,2.001,0.074,3.767-1.125,5.294c-1.017,1.294-2.289,2.086-3.818,2.374c-1.53,0.287-3.133,0.044-4.811-0.734
	C139.057,436.65,137.354,435.502,135.083,433.721L135.083,433.721z M142.771,423.929l-6.81,8.674
	c0.309,0.274,0.548,0.479,0.717,0.611c1.205,0.946,2.414,1.315,3.628,1.114c1.213-0.203,2.409-1.055,3.586-2.556
	c1.17-1.489,1.7-2.836,1.59-4.039c-0.111-1.203-0.811-2.313-2.104-3.327L142.771,423.929L142.771,423.929z M166.037,437.861
	c3.551,1.935,5.773,4.626,6.665,8.071c0.891,3.447,0.374,6.79-1.551,10.03c-1.645,2.771-3.9,4.724-6.769,5.864
	c-3.801,1.517-7.659,1.111-11.573-1.213c-3.926-2.331-6.171-5.465-6.735-9.4c-0.446-3.107,0.188-6.105,1.902-8.992
	c1.923-3.24,4.63-5.286,8.119-6.14C159.583,435.229,162.896,435.82,166.037,437.861L166.037,437.861z M165.621,439.003
	c-1.993-1.184-4.113-1.065-6.361,0.355c-1.84,1.171-3.69,3.322-5.55,6.453c-2.209,3.722-3.189,6.859-2.94,9.416
	c0.171,1.783,1.076,3.163,2.716,4.135c1.103,0.655,2.182,0.935,3.24,0.838c1.35-0.127,2.734-0.787,4.154-1.982
	c1.419-1.194,2.85-3.005,4.289-5.428c1.712-2.885,2.727-5.203,3.041-6.952c0.314-1.749,0.232-3.165-0.247-4.248
	C167.482,440.508,166.703,439.646,165.621,439.003L165.621,439.003z M182.165,462.062l-2.757,6.609
	c-0.527,1.265-0.78,2.093-0.758,2.485c0.021,0.395,0.191,0.771,0.508,1.133c0.317,0.361,1.021,0.77,2.111,1.223l-0.263,0.63
	l-12.119-5.054l0.262-0.629c1.103,0.46,1.891,0.671,2.367,0.633c0.477-0.036,0.862-0.185,1.153-0.438
	c0.293-0.256,0.703-1.014,1.229-2.278l6.367-15.268c0.526-1.263,0.779-2.091,0.757-2.484c-0.021-0.393-0.19-0.771-0.508-1.132
	c-0.316-0.361-1.02-0.769-2.11-1.225l0.262-0.63l10.912,4.551c2.839,1.184,4.836,2.247,5.989,3.188
	c1.153,0.94,1.926,2.11,2.317,3.511c0.393,1.4,0.293,2.809-0.297,4.226c-0.721,1.729-1.935,2.897-3.641,3.51
	c-1.088,0.385-2.415,0.461-3.982,0.225l2.302,10.282c0.308,1.345,0.565,2.21,0.771,2.595c0.323,0.559,0.789,0.986,1.399,1.28
	l-0.262,0.63l-7.358-3.068l-3.104-13.859L182.165,462.062L182.165,462.062z M186.935,450.625l-4.222,10.125l0.991,0.414
	c1.613,0.673,2.879,1.03,3.801,1.075c0.921,0.044,1.769-0.217,2.542-0.782c0.773-0.564,1.414-1.454,1.921-2.67
	c0.734-1.761,0.857-3.237,0.366-4.429c-0.49-1.192-1.67-2.179-3.537-2.957L186.935,450.625L186.935,450.625z M224.795,461.724
	l-1.844,6.625l-0.657-0.183c0.041-1.63-0.08-2.844-0.361-3.64c-0.281-0.795-0.773-1.505-1.477-2.128
	c-0.396-0.343-1.162-0.673-2.298-0.989l-1.863-0.519l-5.26,18.893c-0.346,1.245-0.495,2.044-0.445,2.394
	c0.049,0.35,0.241,0.697,0.576,1.042c0.334,0.344,0.847,0.612,1.538,0.806l0.805,0.224l-0.183,0.657l-12.759-3.553l0.183-0.657
	l0.809,0.225c0.707,0.196,1.311,0.229,1.812,0.097c0.358-0.078,0.684-0.3,0.977-0.656c0.211-0.251,0.488-0.987,0.828-2.21
	l5.261-18.892l-1.862-0.52c-1.652-0.458-2.947-0.443-3.888,0.044c-1.32,0.681-2.368,1.881-3.146,3.605l-0.657-0.185l1.845-6.626
	L224.795,461.724L224.795,461.724z M226.105,462.093l12.941,1.851l-0.097,0.676l-0.646-0.093c-0.974-0.139-1.656-0.132-2.049,0.02
	c-0.393,0.15-0.691,0.396-0.896,0.73c-0.205,0.336-0.41,1.217-0.614,2.646l-1.76,12.298c-0.322,2.249-0.368,3.76-0.137,4.536
	c0.23,0.777,0.695,1.462,1.394,2.053c0.699,0.592,1.634,0.97,2.802,1.138c1.341,0.191,2.525,0.05,3.557-0.426
	c1.033-0.477,1.859-1.219,2.481-2.227c0.623-1.008,1.125-2.843,1.507-5.511l1.464-10.243c0.161-1.121,0.161-1.938-0.003-2.452
	c-0.163-0.514-0.407-0.89-0.733-1.124c-0.508-0.362-1.261-0.614-2.26-0.758l0.097-0.675l8.721,1.248l-0.096,0.675l-0.521-0.073
	c-0.704-0.103-1.313-0.044-1.823,0.171c-0.512,0.218-0.913,0.594-1.205,1.131c-0.217,0.372-0.398,1.067-0.544,2.09l-1.366,9.551
	c-0.423,2.954-0.923,5.062-1.498,6.315c-0.574,1.254-1.688,2.325-3.346,3.209c-1.656,0.887-3.78,1.144-6.371,0.772
	c-2.164-0.31-3.792-0.838-4.889-1.587c-1.495-1.021-2.488-2.199-2.974-3.529c-0.487-1.332-0.581-3.041-0.282-5.13l1.762-12.314
	c0.206-1.442,0.254-2.349,0.144-2.724c-0.111-0.373-0.349-0.693-0.714-0.959s-1.082-0.469-2.146-0.609L226.105,462.093
	L226.105,462.093z"/>
<path fill-rule="evenodd" clip-rule="evenodd" fill="#FFFFFF" d="M286.223,490.941l-0.096-0.675l0.834-0.12
	c0.73-0.105,1.271-0.299,1.629-0.583c0.357-0.283,0.602-0.637,0.729-1.058c0.074-0.274,0.02-1.058-0.166-2.352l-2.391-16.596
	c-0.184-1.28-0.365-2.071-0.549-2.373c-0.182-0.3-0.496-0.539-0.947-0.72c-0.449-0.179-1.025-0.22-1.729-0.118l-0.836,0.12
	l-0.098-0.675l11.25-1.62c3.002-0.433,5.477-0.372,7.422,0.182c2.381,0.68,4.295,1.95,5.742,3.811
	c1.447,1.863,2.355,4.072,2.725,6.631c0.254,1.77,0.203,3.438-0.15,5.01c-0.354,1.573-0.912,2.909-1.674,4.009
	c-0.762,1.102-1.691,2.03-2.787,2.786c-1.096,0.758-2.473,1.42-4.131,1.986c-0.734,0.257-1.908,0.503-3.525,0.735L286.223,490.941
	L286.223,490.941z M292.369,465.822l2.822,19.61c0.15,1.04,0.293,1.669,0.424,1.888c0.133,0.222,0.326,0.377,0.58,0.467
	c0.361,0.137,0.855,0.16,1.486,0.069c2.066-0.297,3.543-1.229,4.43-2.795c1.211-2.117,1.529-5.177,0.953-9.182
	c-0.465-3.224-1.344-5.728-2.635-7.51c-1.021-1.392-2.203-2.268-3.543-2.63C295.938,465.485,294.434,465.512,292.369,465.822
	L292.369,465.822z M322.305,472.577l1.963,6.888c0.375,1.316,0.695,2.121,0.955,2.415c0.264,0.294,0.633,0.483,1.105,0.569
	c0.473,0.085,1.275-0.034,2.412-0.359l0.188,0.656l-12.627,3.6l-0.188-0.655c1.148-0.327,1.896-0.652,2.246-0.979
	c0.35-0.326,0.557-0.68,0.627-1.062c0.068-0.382-0.082-1.231-0.459-2.548l-4.535-15.907c-0.377-1.316-0.695-2.121-0.957-2.414
	c-0.262-0.294-0.631-0.483-1.104-0.569c-0.471-0.085-1.275,0.034-2.414,0.358l-0.186-0.657l11.369-3.242
	c2.959-0.843,5.182-1.257,6.67-1.239c1.49,0.018,2.822,0.451,4.002,1.301c1.18,0.852,1.979,2.016,2.4,3.49
	c0.512,1.799,0.293,3.473-0.658,5.015c-0.611,0.979-1.604,1.864-2.977,2.658l8.211,6.604c1.076,0.859,1.818,1.375,2.219,1.55
	c0.6,0.234,1.23,0.277,1.893,0.128l0.188,0.657l-7.668,2.186l-11.063-8.902L322.305,472.577L322.305,472.577z M318.904,460.66
	l3.01,10.55l1.033-0.294c1.68-0.479,2.895-0.988,3.643-1.528s1.25-1.271,1.502-2.194c0.252-0.924,0.197-2.02-0.164-3.287
	c-0.523-1.835-1.348-3.065-2.473-3.693c-1.127-0.625-2.664-0.66-4.609-0.105L318.904,460.66L318.904,460.66z M347.865,448.554
	c3.633-1.781,7.113-2.041,10.439-0.777c3.328,1.265,5.758,3.617,7.291,7.059c1.311,2.942,1.604,5.913,0.879,8.912
	c-0.959,3.98-3.518,6.896-7.678,8.747c-4.168,1.858-8.023,1.883-11.563,0.068c-2.795-1.431-4.875-3.681-6.24-6.746
	c-1.535-3.444-1.643-6.835-0.324-10.174C341.988,452.303,344.387,449.938,347.865,448.554L347.865,448.554z M348.559,449.553
	c-2.117,0.941-3.246,2.743-3.383,5.398c-0.109,2.178,0.578,4.93,2.061,8.256c1.76,3.953,3.756,6.567,5.986,7.84
	c1.557,0.891,3.205,0.948,4.945,0.174c1.172-0.523,2.023-1.243,2.555-2.162c0.678-1.175,0.938-2.688,0.781-4.537
	c-0.156-1.848-0.807-4.062-1.953-6.636c-1.365-3.064-2.672-5.229-3.918-6.498c-1.246-1.267-2.451-2.019-3.609-2.252
	C350.861,448.902,349.707,449.04,348.559,449.553L348.559,449.553z M383.018,428.502l4.811,7.583l-0.576,0.365
	c-2.029-1.637-4.096-2.549-6.197-2.737c-2.102-0.189-3.994,0.248-5.67,1.312c-1.604,1.018-2.654,2.316-3.148,3.893
	c-0.492,1.579-0.447,3.315,0.131,5.21c0.582,1.896,1.41,3.692,2.486,5.391c1.307,2.057,2.691,3.708,4.162,4.951
	c1.469,1.243,2.975,1.886,4.516,1.926c1.543,0.043,3.059-0.407,4.547-1.352c0.516-0.327,1.012-0.72,1.484-1.174
	c0.473-0.456,0.926-0.97,1.363-1.542l-2.816-4.44c-0.541-0.853-0.949-1.368-1.227-1.545c-0.273-0.175-0.658-0.249-1.152-0.221
	c-0.494,0.03-1.004,0.209-1.521,0.539l-0.559,0.352l-0.363-0.573l10.416-6.607l0.365,0.576c-0.75,0.552-1.229,1.009-1.434,1.37
	c-0.205,0.36-0.268,0.785-0.191,1.275c0.035,0.263,0.303,0.788,0.803,1.578l2.816,4.438c-0.984,1.481-2.119,2.847-3.402,4.098
	c-1.285,1.25-2.725,2.379-4.314,3.39c-2.037,1.291-3.902,2.087-5.598,2.386c-1.695,0.301-3.342,0.328-4.941,0.08
	c-1.598-0.249-3.045-0.75-4.34-1.51c-1.656-0.984-3.057-2.375-4.199-4.175c-2.043-3.222-2.635-6.662-1.773-10.321
	c0.859-3.658,3.01-6.58,6.449-8.76c1.066-0.676,2.078-1.198,3.041-1.571c0.52-0.208,1.426-0.442,2.719-0.702
	c1.295-0.258,2.033-0.449,2.223-0.568c0.297-0.188,0.5-0.473,0.613-0.854c0.113-0.383,0.08-0.947-0.098-1.696L383.018,428.502
	L383.018,428.502z M396.375,417.845c2.967-2.75,6.225-3.997,9.775-3.743c3.551,0.256,6.555,1.811,9.012,4.668
	c2.1,2.44,3.232,5.204,3.4,8.286c0.225,4.085-1.391,7.613-4.84,10.583c-3.461,2.976-7.146,4.106-11.057,3.386
	c-3.09-0.567-5.729-2.125-7.916-4.671c-2.459-2.857-3.535-6.075-3.232-9.653C391.82,423.124,393.439,420.17,396.375,417.845
	L396.375,417.845z M397.324,418.604c-1.756,1.509-2.32,3.558-1.689,6.142c0.521,2.117,1.971,4.556,4.344,7.317
	c2.824,3.281,5.486,5.211,7.988,5.79c1.746,0.406,3.34-0.012,4.785-1.256c0.973-0.836,1.582-1.771,1.826-2.805
	c0.313-1.318,0.127-2.842-0.553-4.568c-0.682-1.727-1.941-3.658-3.777-5.797c-2.188-2.542-4.061-4.242-5.619-5.1
	c-1.559-0.854-2.928-1.229-4.105-1.118C399.346,417.317,398.277,417.783,397.324,418.604L397.324,418.604z M431.895,380.079
	l0.521,0.437c-0.271,0.388-0.424,0.777-0.457,1.169c-0.033,0.393,0.051,0.834,0.25,1.321c0.066,0.153,0.561,1.076,1.479,2.766
	l10.971,19.559l-0.42,0.502l-16.746-5.769l8.238,15.965l-0.416,0.5l-21.291-6.852c-2.148-0.686-3.496-1.039-4.051-1.061
	c-0.549-0.021-1.111,0.251-1.682,0.816l-0.523-0.436l7.047-8.447l0.523,0.438c-0.551,0.697-0.824,1.236-0.824,1.617
	c-0.002,0.384,0.141,0.69,0.418,0.922c0.363,0.305,1.334,0.717,2.908,1.231l12.652,4.072l-4.9-9.349l-2.646-0.902
	c-1.492-0.496-2.525-0.781-3.104-0.854c-0.576-0.074-1.074-0.022-1.498,0.153c-0.42,0.177-0.885,0.565-1.387,1.17l-0.525-0.438
	l7.818-9.371l0.523,0.436c-0.543,0.67-0.885,1.189-1.027,1.559c-0.102,0.257-0.119,0.51-0.059,0.756
	c0.063,0.249,0.195,0.456,0.396,0.624c0.223,0.185,1.08,0.534,2.574,1.049l12.195,4.154l-5.699-10.156
	c-0.584-1.059-1.004-1.758-1.258-2.098c-0.252-0.34-0.512-0.625-0.781-0.848c-0.396-0.33-0.816-0.453-1.266-0.373
	c-0.451,0.08-1,0.491-1.652,1.23l-0.523-0.436L431.895,380.079L431.895,380.079z M437.783,372.143l8.822,5.294l0.258-0.433
	c0.832-1.384,1.002-2.646,0.512-3.784c-0.49-1.14-1.525-2.301-3.109-3.484l0.352-0.586l11.404,6.847l-0.352,0.586
	c-1.32-0.618-2.502-0.96-3.545-1.023c-1.039-0.064-1.861,0.096-2.465,0.479c-0.602,0.382-1.213,1.092-1.836,2.132l6.139,3.687
	c1.201,0.721,1.965,1.111,2.295,1.17c0.328,0.06,0.662,0,1-0.175c0.34-0.176,0.697-0.574,1.07-1.196l0.779-1.302
	c1.223-2.034,1.734-3.947,1.533-5.738c-0.201-1.789-1.105-3.531-2.711-5.223l0.354-0.59l6.334,5.136l-11.291,18.806l-0.584-0.351
	l0.434-0.723c0.379-0.633,0.572-1.208,0.582-1.729c0.016-0.368-0.109-0.736-0.381-1.104c-0.188-0.271-0.822-0.734-1.912-1.388
	l-14.375-8.63c-0.982-0.59-1.6-0.923-1.855-1.005c-0.438-0.117-0.844-0.092-1.223,0.076c-0.541,0.228-1.025,0.695-1.451,1.402
	l-0.434,0.725l-0.584-0.352l10.943-18.228l6.383,3.832l-0.352,0.587c-1.738-0.619-3.117-0.85-4.133-0.689
	c-1.016,0.161-1.992,0.664-2.932,1.506c-0.553,0.491-1.328,1.566-2.324,3.226L437.783,372.143L437.783,372.143z M453.982,334.655
	l8.252,3.545l-0.27,0.626c-2.6-0.204-4.82,0.209-6.66,1.24c-1.844,1.03-3.156,2.458-3.939,4.284c-0.75,1.746-0.883,3.408-0.4,4.988
	c0.484,1.583,1.5,2.992,3.049,4.227c1.551,1.236,3.248,2.253,5.098,3.046c2.236,0.961,4.313,1.541,6.227,1.737
	c1.914,0.197,3.52-0.123,4.816-0.959c1.299-0.838,2.293-2.064,2.988-3.684c0.242-0.562,0.432-1.165,0.563-1.808
	c0.133-0.643,0.219-1.322,0.256-2.041l-4.832-2.075c-0.928-0.398-1.555-0.595-1.881-0.584c-0.33,0.011-0.688,0.166-1.078,0.471
	c-0.393,0.304-0.711,0.737-0.953,1.303l-0.262,0.605l-0.625-0.27l4.867-11.333l0.629,0.269c-0.311,0.88-0.447,1.526-0.412,1.938
	c0.037,0.414,0.225,0.801,0.564,1.162c0.174,0.198,0.695,0.479,1.553,0.851l4.828,2.073c0.027,1.777-0.141,3.545-0.494,5.303
	c-0.355,1.757-0.902,3.501-1.646,5.233c-0.951,2.216-2.043,3.926-3.271,5.13c-1.229,1.207-2.574,2.158-4.033,2.856
	c-1.461,0.697-2.938,1.1-4.436,1.204c-1.924,0.124-3.865-0.233-5.824-1.076c-3.504-1.504-5.934-4.011-7.291-7.516
	c-1.354-3.505-1.229-7.131,0.379-10.874c0.496-1.157,1.037-2.162,1.623-3.013c0.309-0.466,0.926-1.17,1.848-2.113
	c0.92-0.944,1.424-1.52,1.514-1.726c0.137-0.322,0.145-0.672,0.023-1.051s-0.469-0.827-1.037-1.344L453.982,334.655L453.982,334.655
	z M458.979,318.321c0.893-3.942,2.875-6.814,5.947-8.613c3.074-1.797,6.43-2.211,10.072-1.245c3.113,0.827,5.609,2.464,7.488,4.91
	c2.496,3.245,3.16,7.067,1.992,11.468c-1.172,4.412-3.574,7.428-7.205,9.043c-2.869,1.279-5.928,1.487-9.172,0.626
	c-3.641-0.968-6.35-3.012-8.123-6.137C458.207,325.251,457.873,321.902,458.979,318.321L458.979,318.321z M460.189,318.412
	c-0.594,2.239,0.1,4.246,2.08,6.022c1.627,1.45,4.203,2.643,7.721,3.576c4.184,1.111,7.469,1.197,9.861,0.262
	c1.672-0.653,2.75-1.899,3.238-3.741c0.328-1.24,0.303-2.354-0.08-3.347c-0.488-1.264-1.502-2.416-3.039-3.456
	c-1.537-1.038-3.67-1.921-6.395-2.644c-3.24-0.861-5.746-1.205-7.516-1.03c-1.768,0.177-3.109,0.642-4.02,1.397
	C461.131,316.21,460.514,317.196,460.189,318.412L460.189,318.412z"/>
</svg>
